<svg width="250" height="250" viewBox="0 0 250 250" fill="none" xmlns="http://www.w3.org/2000/svg">
<rect x="60.496" y="117.496" width="171.408" height="73.848" fill="#7BD667"/>
<rect x="60.496" y="117.496" width="171.408" height="73.848" stroke="black" stroke-width="4.992"/>
<path d="M103.203 167.854C100.482 167.854 98.0733 167.73 95.9766 167.48C93.88 167.23 92.3699 166.981 91.4464 166.731V165.982L90.6976 161.976C91.047 162.376 91.7085 162.8 92.6819 163.249C93.6803 163.699 95.0032 164.085 96.6506 164.41C98.2979 164.709 100.257 164.859 102.529 164.859C104.575 164.859 106.123 164.722 107.171 164.447C108.244 164.148 108.968 163.748 109.343 163.249C109.742 162.725 109.942 162.126 109.942 161.452C109.942 160.653 109.617 160.017 108.968 159.543C108.319 159.068 107.346 158.694 106.048 158.42C104.775 158.12 103.19 157.858 101.293 157.633C98.8221 157.309 96.8378 156.884 95.3402 156.36C93.8426 155.811 92.7568 155.087 92.0829 154.189C91.409 153.29 91.072 152.155 91.072 150.782C91.072 149.609 91.4214 148.56 92.1203 147.637C92.8442 146.713 93.9299 145.989 95.3776 145.465C96.8253 144.916 98.6723 144.642 100.919 144.642C103.515 144.642 105.773 144.766 107.695 145.016C109.617 145.266 110.978 145.515 111.776 145.765V146.514L112.9 149.883C112.375 149.559 111.564 149.222 110.466 148.872C109.393 148.523 108.095 148.236 106.572 148.011C105.05 147.762 103.352 147.637 101.48 147.637C99.9328 147.637 98.6973 147.749 97.7738 147.974C96.8752 148.198 96.2262 148.535 95.8269 148.985C95.4525 149.409 95.2653 149.933 95.2653 150.557C95.2653 151.381 95.5648 152.042 96.1638 152.541C96.7878 153.041 97.6864 153.428 98.8595 153.702C100.058 153.977 101.505 154.214 103.203 154.413C105.898 154.713 108.045 155.137 109.642 155.686C111.24 156.236 112.388 156.972 113.087 157.895C113.786 158.819 114.135 160.017 114.135 161.49C114.135 162.463 113.898 163.349 113.424 164.148C112.974 164.922 112.288 165.596 111.364 166.17C110.441 166.719 109.293 167.143 107.92 167.443C106.572 167.717 105 167.854 103.203 167.854ZM124.602 167.854C121.881 167.854 119.971 167.368 118.873 166.394C117.775 165.396 117.226 164.06 117.226 162.388C117.226 161.215 117.513 160.217 118.087 159.393C118.686 158.544 119.572 157.895 120.745 157.446C121.943 156.997 123.453 156.772 125.275 156.772C126.573 156.772 127.697 156.872 128.645 157.072C129.619 157.246 130.405 157.459 131.004 157.708C131.628 157.958 132.065 158.17 132.314 158.345C132.314 156.872 132.127 155.686 131.753 154.788C131.403 153.889 130.829 153.24 130.03 152.841C129.232 152.417 128.146 152.204 126.773 152.204C125.3 152.204 123.978 152.379 122.804 152.729C121.656 153.053 120.733 153.415 120.034 153.814C119.335 154.189 118.898 154.463 118.723 154.638V153.889L118.349 151.081C118.574 150.981 119.06 150.819 119.809 150.595C120.558 150.345 121.544 150.12 122.767 149.921C123.99 149.696 125.425 149.584 127.073 149.584C129.169 149.584 130.879 149.883 132.202 150.482C133.55 151.056 134.536 151.955 135.16 153.178C135.809 154.376 136.133 155.899 136.133 157.746V165.234C136.133 165.932 136.208 166.444 136.358 166.769C136.532 167.068 136.707 167.305 136.882 167.48H132.314V166.357L132.389 165.645L132.314 165.608C131.915 165.982 131.441 166.307 130.891 166.581C130.342 166.856 129.743 167.093 129.094 167.293C128.445 167.468 127.734 167.605 126.96 167.705C126.211 167.804 125.425 167.854 124.602 167.854ZM125.837 165.196C127.185 165.196 128.346 165.059 129.319 164.784C130.292 164.51 131.029 164.148 131.528 163.699C132.052 163.224 132.314 162.688 132.314 162.089C132.314 161.34 131.815 160.703 130.817 160.179C129.843 159.655 128.321 159.393 126.249 159.393C124.327 159.393 122.967 159.643 122.168 160.142C121.394 160.641 121.007 161.39 121.007 162.388C121.007 163.362 121.382 164.073 122.131 164.522C122.904 164.972 124.14 165.196 125.837 165.196ZM140.438 176.615C138.94 176.615 137.754 176.466 136.881 176.166C136.007 175.867 135.446 175.58 135.196 175.305L135.945 171.374V170.251C136.119 170.775 136.406 171.324 136.806 171.898C137.18 172.497 137.667 172.996 138.266 173.396C138.865 173.795 139.539 173.995 140.288 173.995C141.136 173.995 141.86 173.82 142.459 173.47C143.058 173.146 143.582 172.672 144.032 172.048C144.506 171.424 144.955 170.7 145.38 169.876C145.879 168.878 146.191 168.191 146.316 167.817C146.166 167.617 145.929 167.156 145.604 166.432C145.28 165.708 144.893 164.834 144.444 163.811C143.994 162.763 143.52 161.652 143.021 160.479C142.547 159.306 142.072 158.17 141.598 157.072C141.124 155.973 140.7 155 140.325 154.151C139.951 153.303 139.664 152.691 139.464 152.317C139.04 151.518 138.653 150.932 138.303 150.557C137.954 150.183 137.704 149.983 137.555 149.958H143.657C143.458 149.958 143.32 150.145 143.246 150.52C143.196 150.869 143.333 151.468 143.657 152.317C143.857 152.791 144.132 153.477 144.481 154.376C144.83 155.25 145.217 156.248 145.642 157.371C146.066 158.469 146.503 159.593 146.952 160.741C147.401 161.864 147.813 162.912 148.188 163.886H148.225C148.624 162.862 149.061 161.764 149.535 160.591C150.01 159.418 150.471 158.27 150.921 157.147C151.395 156.023 151.807 155.025 152.156 154.151C152.531 153.278 152.805 152.641 152.98 152.242C153.329 151.443 153.467 150.869 153.392 150.52C153.317 150.17 153.18 149.983 152.98 149.958H158.858C158.708 149.983 158.471 150.17 158.147 150.52C157.847 150.844 157.498 151.406 157.098 152.204C156.874 152.629 156.524 153.353 156.05 154.376C155.601 155.399 155.077 156.572 154.478 157.895C153.878 159.218 153.267 160.591 152.643 162.014C152.019 163.412 151.432 164.734 150.883 165.982C150.334 167.205 149.872 168.216 149.498 169.015C148.724 170.687 147.901 172.085 147.027 173.208C146.178 174.356 145.217 175.205 144.144 175.754C143.071 176.328 141.835 176.615 140.438 176.615ZM167.823 167.854C165.102 167.854 163.193 167.368 162.095 166.394C160.996 165.396 160.447 164.06 160.447 162.388C160.447 161.215 160.734 160.217 161.308 159.393C161.907 158.544 162.793 157.895 163.967 157.446C165.165 156.997 166.675 156.772 168.497 156.772C169.795 156.772 170.918 156.872 171.866 157.072C172.84 157.246 173.626 157.459 174.225 157.708C174.849 157.958 175.286 158.17 175.535 158.345C175.535 156.872 175.348 155.686 174.974 154.788C174.624 153.889 174.05 153.24 173.252 152.841C172.453 152.417 171.367 152.204 169.994 152.204C168.522 152.204 167.199 152.379 166.026 152.729C164.878 153.053 163.954 153.415 163.255 153.814C162.556 154.189 162.119 154.463 161.945 154.638V153.889L161.57 151.081C161.795 150.981 162.282 150.819 163.031 150.595C163.779 150.345 164.765 150.12 165.988 149.921C167.211 149.696 168.647 149.584 170.294 149.584C172.391 149.584 174.1 149.883 175.423 150.482C176.771 151.056 177.757 151.955 178.381 153.178C179.03 154.376 179.354 155.899 179.354 157.746V165.234C179.354 165.932 179.429 166.444 179.579 166.769C179.754 167.068 179.928 167.305 180.103 167.48H175.535V166.357L175.61 165.645L175.535 165.608C175.136 165.982 174.662 166.307 174.113 166.581C173.564 166.856 172.965 167.093 172.316 167.293C171.667 167.468 170.955 167.605 170.182 167.705C169.433 167.804 168.647 167.854 167.823 167.854ZM169.058 165.196C170.406 165.196 171.567 165.059 172.54 164.784C173.514 164.51 174.25 164.148 174.749 163.699C175.273 163.224 175.535 162.688 175.535 162.089C175.535 161.34 175.036 160.703 174.038 160.179C173.064 159.655 171.542 159.393 169.47 159.393C167.548 159.393 166.188 159.643 165.389 160.142C164.615 160.641 164.229 161.39 164.229 162.388C164.229 163.362 164.603 164.073 165.352 164.522C166.126 164.972 167.361 165.196 169.058 165.196ZM183.434 167.48C183.609 167.48 183.771 167.305 183.921 166.956C184.096 166.606 184.183 166.032 184.183 165.234V143.893C184.183 143.094 184.096 142.532 183.921 142.208C183.771 141.859 183.609 141.671 183.434 141.646H188.002V156.211C188.002 156.76 188.064 157.097 188.189 157.221C188.339 157.321 188.788 157.371 189.537 157.371C190.311 157.371 191.034 157.196 191.708 156.847C192.382 156.498 192.981 155.948 193.506 155.2C194.055 154.426 194.466 153.44 194.741 152.242C194.941 151.418 195.016 150.832 194.966 150.482C194.941 150.133 194.866 149.958 194.741 149.958H200.844C200.694 149.958 200.444 150.133 200.095 150.482C199.77 150.832 199.384 151.418 198.934 152.242C198.36 153.29 197.824 154.201 197.324 154.975C196.825 155.749 196.251 156.41 195.602 156.959C194.953 157.508 194.13 157.995 193.131 158.42C194.304 158.819 195.315 159.343 196.164 159.992C197.037 160.616 197.811 161.365 198.485 162.238C199.184 163.112 199.87 164.11 200.544 165.234C201.043 166.032 201.48 166.606 201.855 166.956C202.254 167.305 202.541 167.48 202.716 167.48H196.65C196.8 167.455 196.85 167.243 196.8 166.844C196.775 166.444 196.526 165.783 196.051 164.859C195.627 163.986 195.103 163.187 194.479 162.463C193.855 161.714 193.131 161.128 192.307 160.703C191.509 160.254 190.585 160.029 189.537 160.029C188.763 160.029 188.314 160.079 188.189 160.179C188.064 160.254 188.002 160.579 188.002 161.153V165.234C188.002 166.032 188.077 166.606 188.226 166.956C188.401 167.305 188.576 167.48 188.751 167.48H183.434Z" fill="black"/>
<path fill-rule="evenodd" clip-rule="evenodd" d="M66.6391 89.7416L19.624 61.96L30.369 117.834L41.6205 93.6478L66.6391 89.7416Z" fill="#7BD667" stroke="black" stroke-width="4.992" stroke-linecap="square"/>
</svg>
